# xmcd
#
# Track frame offsets: 
#        150
#        14065
#        25731
#        44200
#        55207
#        69181
#        85999
#        103054
#        128134
#        139769
#        156706
#        172073
#        200658
#        213346
#        227920
#        246574
#
# Disc length: 3589 seconds
#
# Revision: 0
# Processed by: cddbd v1.5.2PL0 Copyright (c) Steve Scherf et al.
# Submitted via: ExactAudioCopy v0.95a5
#
DISCID=f80e0310
DTITLE=Earl Gilliam - Texas Doghouse Blues
DYEAR=2004
DGENRE=Blues
TTITLE0=My Thing
TTITLE1=Early In The Morning
TTITLE2=Twist2
TTITLE3=Pretty Little Doll
TTITLE4=The Doghouse
TTITLE5=Get Away Blues
TTITLE6=Thrill Groove
TTITLE7=Petite Baby
TTITLE8=Going Downtown
TTITLE9=Screaming Hog
TTITLE10=Got To Find My Baby
TTITLE11=First Name Is Earl
TTITLE12=Stop By John's
TTITLE13=Brush Those Tears From Your Eyes
TTITLE14=Tomball Shuffle
TTITLE15=Rambling Blues
EXTD=
EXTT0=
EXTT1=
EXTT2=
EXTT3=
EXTT4=
EXTT5=
EXTT6=
EXTT7=
EXTT8=
EXTT9=
EXTT10=
EXTT11=
EXTT12=
EXTT13=
EXTT14=
EXTT15=
PLAYORDER=
